<svg id="layer_1" data-name="layer 1" xmlns="http://www.w3.org/2000/svg" viewBox="0 0 168.72 168.76"><defs><style>.cls-1{fill:#fff;}.cls-2{fill:#19969e;}.cls-3{fill:#86177a;}</style></defs><path class="cls-1" d="M168.72,84.37A84.36,84.36,0,1,1,84.36,0a84.39,84.39,0,0,1,84.36,84.37"/><path class="cls-2" d="M8.59,109c4.8-.85,60.8-9.19,75.8,55a79.86,79.86,0,0,1-75.9-55h0"/><path class="cls-3" d="M135.67,77.65h28.15A79.69,79.69,0,0,0,5,77.65h28.2V57.18H53.68V36.61H74.2V16.16H94.65V36.64h20.52V57.18h20.49Z"/><path class="cls-3" d="M96.55,104.61A16.69,16.69,0,0,0,100.33,94a16.1,16.1,0,1,0-32.18,0,16.81,16.81,0,0,0,3.78,10.64l-.75,0-63.88,0,0-.06L7.16,104A76.44,76.44,0,0,1,5.27,93.81H33.16V77.63H53.67V57.13H74.18V36.63h20.5v20.5h20.47v20.5h20.52l0,16.2,24.07,0h3.68a80.92,80.92,0,0,1-1.9,10.18l-.13.5,0,.08h-1.63l-62.37,0"/><path class="cls-2" d="M160.05,109c-4.8-.85-60.8-9.19-75.8,55a79.84,79.84,0,0,0,75.88-55h0"/></svg>
